<?xml version="1.0" encoding="UTF-8" standalone="no"?>
<svg
   xmlns:dc="http://purl.org/dc/elements/1.1/"
   xmlns:cc="http://creativecommons.org/ns#"
   xmlns:rdf="http://www.w3.org/1999/02/22-rdf-syntax-ns#"
   xmlns:svg="http://www.w3.org/2000/svg"
   xmlns="http://www.w3.org/2000/svg"
   xmlns:sodipodi="http://sodipodi.sourceforge.net/DTD/sodipodi-0.dtd"
   xmlns:inkscape="http://www.inkscape.org/namespaces/inkscape"
   width="353.02975mm"
   height="170.35387mm"
   viewBox="0 0 353.02975 170.35387"
   version="1.1"
   id="svg8"
   inkscape:version="1.0.1 (c497b03c, 2020-09-10)"
   sodipodi:docname="plate.svg">
  <defs
     id="defs2" />
  <sodipodi:namedview
     id="base"
     pagecolor="#ffffff"
     bordercolor="#666666"
     borderopacity="1.0"
     inkscape:pageopacity="0.0"
     inkscape:pageshadow="2"
     inkscape:zoom="0.7"
     inkscape:cx="575.16637"
     inkscape:cy="226.76866"
     inkscape:document-units="mm"
     inkscape:current-layer="layer1"
     inkscape:document-rotation="0"
     showgrid="false"
     fit-margin-top="0"
     fit-margin-left="0"
     fit-margin-right="0"
     fit-margin-bottom="0"
     inkscape:window-width="1252"
     inkscape:window-height="943"
     inkscape:window-x="30"
     inkscape:window-y="23"
     inkscape:window-maximized="0" />
  <metadata
     id="metadata5">
    <rdf:RDF>
      <cc:Work
         rdf:about="">
        <dc:format>image/svg+xml</dc:format>
        <dc:type
           rdf:resource="http://purl.org/dc/dcmitype/StillImage" />
        <dc:title></dc:title>
      </cc:Work>
    </rdf:RDF>
  </metadata>
  <g
     inkscape:label="Layer 1"
     inkscape:groupmode="layer"
     id="layer1"
     transform="translate(56.696434,-37.28735)">
    <path
       style="fill:#000000;stroke-width:0.264583"
       d="m -31.378142,201.32538 c -2.240388,-0.82295 -4.681462,-3.06416 -5.75676,-5.28543 -0.526919,-1.08846 -0.530428,-1.57863 -0.530428,-74.08594 V 48.963798 l 0.580728,-1.208015 c 0.762729,-1.586609 3.183292,-3.982805 4.84323,-4.794474 l 1.322917,-0.646873 151.205175,-0.06683 c 134.10403,-0.05927 151.34031,-0.02176 152.39999,0.331734 2.69941,0.900463 5.45243,3.804902 6.35857,6.708283 0.51787,1.659286 0.5248,2.61993 0.5248,72.666397 0,70.04647 -0.007,71.00711 -0.5248,72.6664 -0.90141,2.88818 -3.63924,5.78611 -6.33534,6.70581 -1.03995,0.35474 -18.1383,0.39756 -152.13543,0.38102 -127.2841546,-0.0157 -151.118906,-0.0756 -151.952652,-0.38186 z m 304.121052,-1.4966 c 1.92267,-0.90123 3.76425,-2.74281 4.66547,-4.66548 l 0.70649,-1.5072 V 121.95401 50.251936 l -0.70649,-1.507199 c -0.90122,-1.922668 -2.7428,-3.764249 -4.66547,-4.665482 l -1.5072,-0.706486 H 120.68779 -29.860122 l -1.507198,0.706486 c -1.922669,0.901233 -3.764249,2.742814 -4.665483,4.665482 l -0.706485,1.507199 v 71.702074 71.70209 l 0.706485,1.5072 c 1.190829,2.54048 3.663771,4.60974 6.234717,5.21696 0.576497,0.13616 64.208308,0.2184 151.015046,0.19516 l 150.01875,-0.0401 z m -114.41814,-5.95354 c -0.3507,-0.0952 -0.46302,-0.40468 -0.46302,-1.27585 0,-1.06935 0.0572,-1.16278 0.8144,-1.32908 l 0.81439,-0.17887 -0.17223,-2.951 c -0.0947,-1.62306 -0.28261,-3.90038 -0.41752,-5.06073 -0.42123,-3.62299 -0.43266,-3.57882 0.9263,-3.57882 h 1.17158 l 0.15472,1.38906 c 0.0851,0.76399 0.18508,2.10344 0.2222,2.97656 0.0748,1.75855 0.0405,1.8002 1.30491,-1.5875 0.4345,-1.16416 0.91183,-2.26549 1.06073,-2.44739 0.33767,-0.4125 2.05802,-0.43866 2.05802,-0.0313 0,0.48237 -4.57687,11.73039 -4.81259,11.82731 -0.11797,0.0485 -0.21449,0.24412 -0.21449,0.43471 0,0.19059 -0.16936,0.41151 -0.37636,0.49094 -0.20699,0.0794 -0.41535,0.41959 -0.46302,0.75591 -0.0877,0.6189 -0.66474,0.82202 -1.60802,0.56605 z M -5.3200186,190.41051 c -0.3274218,-0.0542 -0.5953125,-0.20769 -0.5953125,-0.34114 0,-0.13345 -0.3888131,-0.40509 -0.8640286,-0.60364 -1.1633649,-0.48609 -2.4776535,-2.03543 -2.8951501,-3.41293 -0.2553811,-0.84261 -0.3183282,-3.0355 -0.2488301,-8.66858 0.051168,-4.14734 0.147492,-7.62992 0.2140532,-7.73906 0.066561,-0.10914 0.9476687,-0.19844 1.9580172,-0.19844 h 1.8369994 l -0.1515639,6.94532 c -0.1647878,7.55134 -0.106897,7.94708 1.258308,8.60169 0.4979379,0.23876 0.8938683,0.25802 1.394116,0.0678 1.2584192,-0.47845 1.4214237,-1.40881 1.4859291,-8.48095 0.032467,-3.55983 0.1137232,-6.62126 0.1805649,-6.80316 0.076367,-0.20781 0.6437921,-0.33073 1.526794,-0.33073 2.4723671,0 2.2916805,-0.69422 2.0917878,8.03693 -0.1690423,7.38361 -0.2042583,7.77768 -0.8423195,9.42557 -0.36624678,0.94589 -0.79073902,1.87733 -0.94331893,2.06986 -0.82229853,1.03765 -3.50036867,1.74675 -5.40604597,1.43143 z M 194.13036,189.91019 c -0.90054,-0.63076 -1.34361,-1.96597 -1.34361,-4.04899 0,-1.76769 0.62286,-3.97906 1.12075,-3.97906 0.11119,0 0.20217,-0.17441 0.20217,-0.38757 0,-0.3929 1.05156,-1.12876 1.06638,-0.74622 0.004,0.11426 0.1294,-5.3e-4 0.27773,-0.25527 0.36711,-0.6303 1.63477,-0.58911 2.23359,0.0726 0.26659,0.29458 0.61247,0.49339 0.76861,0.44179 0.15614,-0.0516 0.40296,-0.97723 0.54848,-2.05696 l 0.26458,-1.96314 1.12448,-0.0814 c 0.64239,-0.0465 1.12448,0.0345 1.12448,0.18901 0,0.14871 -0.47625,3.07683 -1.05833,6.50693 -0.58209,3.43011 -1.05834,6.29185 -1.05834,6.35943 0,0.0676 -0.47625,0.12286 -1.05833,0.12286 -0.76435,0 -1.05833,-0.11024 -1.05833,-0.39687 0,-0.49279 -0.232,-0.50346 -0.77292,-0.0355 -0.70441,0.60935 -1.72259,0.71982 -2.38139,0.25838 z m 2.87612,-2.51816 c 0.2949,-0.31653 0.60218,-1.00114 0.68285,-1.52135 0.0807,-0.52021 0.19477,-1.25595 0.25357,-1.63499 0.14002,-0.90259 -0.54925,-1.87842 -1.25255,-1.77329 -0.96648,0.14447 -1.60382,1.34836 -1.62726,3.07378 -0.0309,2.27521 0.80712,3.0755 1.94339,1.85585 z m -216.490387,1.58712 c -1.511617,-1.58903 -2.029104,-2.8981 -2.036029,-5.15047 -0.0039,-1.27767 0.101331,-1.92779 0.324918,-2.00679 0.181901,-0.0643 0.985573,-0.0472 1.785938,0.0378 1.439528,0.15303 1.455978,0.16468 1.52663,1.08074 0.134157,1.73943 0.301516,2.11667 0.939035,2.11667 1.051934,0 1.238454,-0.47588 1.239249,-3.16177 4.23e-4,-1.38972 0.07894,-4.7642 0.174512,-7.49883 l 0.173766,-4.97207 1.743716,0.0773 1.743716,0.0773 -0.07682,7.80521 c -0.04225,4.29287 -0.199634,8.26641 -0.349733,8.8301 -0.659881,2.47814 -2.36588,3.8699 -4.743663,3.8699 -1.291982,0 -1.470942,-0.0809 -2.445231,-1.10507 z m 193.050527,0.84272 c -0.88133,-0.35567 -1.41737,-1.33434 -1.41737,-2.58778 0,-2.06294 1.17192,-3.49987 2.85439,-3.49987 1.23192,0 1.90811,-0.42523 1.90811,-1.19993 0,-0.51028 -0.13684,-0.65215 -0.62906,-0.65215 -0.34598,0 -0.78233,0.18467 -0.96965,0.41039 -0.20733,0.24981 -0.65998,0.37921 -1.15688,0.33073 -1.1376,-0.11102 -1.21645,-0.96171 -0.18476,-1.99339 1.3711,-1.37111 4.24654,-1.34008 5.16107,0.0557 0.36382,0.55526 0.38533,0.98982 0.15361,3.10393 -0.14819,1.35206 -0.34359,3.26196 -0.43422,4.24422 l -0.16477,1.78594 h -0.96705 c -0.53187,0 -1.09623,-0.12919 -1.25414,-0.2871 -0.20641,-0.20641 -0.51503,-0.16923 -1.09811,0.13229 -0.9095,0.47033 -1.00434,0.4786 -1.80117,0.15704 z m 2.66867,-2.70694 c 0.4678,-0.66788 0.55199,-1.79321 0.13415,-1.79321 -0.15274,0 -0.62899,0.18166 -1.05833,0.40367 -0.74397,0.38473 -1.06467,1.34074 -0.60422,1.80119 0.36319,0.36319 1.13042,0.15655 1.5284,-0.41165 z m 10.90007,2.77699 c -0.65941,-0.0985 -0.73916,-0.20388 -0.62084,-0.82026 0.7189,-3.74478 1.03199,-6.45017 0.7761,-6.70607 -0.39115,-0.39114 -1.54523,-0.0636 -1.78472,0.50645 -0.1075,0.25592 -0.45155,1.89406 -0.76455,3.64031 l -0.56909,3.175 -1.24526,0.0805 c -1.4082,0.091 -1.32803,0.40804 -0.72291,-2.85862 0.14826,-0.80036 0.44175,-2.46724 0.65221,-3.70416 0.58923,-3.46321 0.5773,-3.43959 1.73718,-3.43959 0.55298,0 1.05036,0.1348 1.10528,0.29956 0.069,0.20713 0.35751,0.16631 0.93495,-0.13229 1.09441,-0.56595 1.54704,-0.54485 2.47418,0.11533 0.66089,0.4706 0.76844,0.72057 0.76839,1.78594 -5e-5,1.27456 -0.95665,7.60714 -1.2114,8.01933 -0.14531,0.23512 -0.20391,0.2366 -1.52952,0.0386 z M 3.9565084,189.47294 c -0.2263034,-0.3642 0.2414799,-19.76696 0.4801182,-19.91445 0.1235313,-0.0763 0.9405011,-0.0578 1.8154887,0.0412 l 1.5908867,0.17999 v 7.22987 7.22988 l 0.9522804,0.17865 c 0.5237562,0.0983 1.6250846,0.12043 2.4473966,0.0493 0.822314,-0.0712 1.643943,-0.0767 1.825844,-0.0123 0.232881,0.0824 0.330729,0.85418 0.330729,2.60855 v 2.4915 l -1.256771,0.0206 c -6.3250179,0.10375 -8.0712863,0.0818 -8.1859726,-0.10274 z M 136.38178,189.27272 c -0.84677,-0.63213 -1.39382,-2.11381 -1.14646,-3.10515 0.27056,-1.08432 1.35112,-2.34954 2.17697,-2.549 2.62088,-0.633 2.72238,-0.68332 2.72238,-1.34975 0,-0.50935 -0.13708,-0.65126 -0.62906,-0.65126 -0.34599,0 -0.77728,0.17859 -0.95844,0.39687 -0.35879,0.43232 -1.50833,0.52279 -2.07547,0.16335 -0.29364,-0.18609 -0.28114,-0.36958 0.0716,-1.05179 0.52552,-1.01624 1.3816,-1.60033 2.64637,-1.80557 1.28078,-0.20785 3.01367,0.55877 3.23232,1.42995 0.23578,0.93942 -0.458,8.37433 -0.8027,8.6022 -0.44235,0.29242 -1.42993,0.24116 -1.98072,-0.10281 -0.38632,-0.24127 -0.6199,-0.21352 -1.11361,0.13229 -0.80737,0.56551 -1.27092,0.54186 -2.14323,-0.10933 z m 2.92517,-2.19028 c 0.16248,-0.19577 0.37403,-0.74907 0.47013,-1.22956 0.17133,-0.85666 0.15981,-0.86989 -0.59374,-0.68177 -1.30816,0.32657 -2.13863,1.47038 -1.51812,2.09089 0.30459,0.30459 1.3333,0.19208 1.64173,-0.17956 z m 27.24328,2.60624 c -0.072,-0.072 0.26924,-2.42352 0.75836,-5.22552 0.48912,-2.80201 0.97469,-5.74941 1.07905,-6.54977 l 0.18974,-1.45521 1.28119,-0.0816 c 1.27945,-0.0815 1.28098,-0.0806 1.12011,0.66146 -0.43196,1.99257 -1.54038,8.3623 -1.74076,10.00351 -0.31959,2.61764 -0.41034,2.77813 -1.5708,2.77813 -0.54226,0 -1.04486,-0.0589 -1.11689,-0.13096 z m -54.07697,-1.0192 c -0.7679,-0.7679 -0.93255,-1.11388 -0.86488,-1.81738 0.075,-0.77952 0.17361,-0.87342 0.95855,-0.91264 0.69428,-0.0347 0.92337,0.0836 1.10932,0.57267 0.29804,0.78391 1.25158,1.11107 1.7591,0.60355 0.54156,-0.54155 0.18307,-1.20812 -0.96461,-1.79363 -2.23715,-1.1413 -2.96565,-3.09439 -1.83599,-4.92222 0.99407,-1.60844 3.97903,-1.72112 5.19926,-0.19627 0.92243,1.15271 0.80695,1.86167 -0.32475,1.99379 -1.04335,0.12181 -1.28289,0.0206 -1.52882,-0.64594 -0.21171,-0.57381 -1.20607,-0.60975 -1.42036,-0.0513 -0.17958,0.46798 0.48985,1.17937 1.69747,1.80385 1.45377,0.75178 1.98441,1.69422 1.85337,3.29174 -0.16439,2.00424 -0.96117,2.7526 -3.09497,2.90695 -1.54018,0.11141 -1.62639,0.0832 -2.54269,-0.83314 z m 11.45568,0.71774 c -0.56053,-0.16409 -0.5655,0.21257 0.0461,-3.49373 0.28003,-1.69692 0.70258,-4.395 0.93901,-5.99573 0.67984,-4.60283 0.29467,-4.10104 3.14797,-4.10104 2.12683,0 2.59408,0.0833 3.3684,0.60059 0.49446,0.33032 1.10719,1.01493 1.36163,1.52135 0.96929,1.92925 0.33055,7.21034 -1.12986,9.34166 -1.15266,1.6822 -2.14738,2.13339 -4.85374,2.20157 -1.32908,0.0335 -2.62487,-1.1e-4 -2.87953,-0.0747 z m 5.53032,-3.85212 c 0.69594,-0.6374 1.15041,-2.33581 1.15041,-4.29929 0,-1.78257 -0.5793,-2.52867 -1.96335,-2.52867 -1.02434,0 -0.89673,-0.32906 -1.61927,4.17552 -0.23999,1.49618 -0.37788,2.8727 -0.30641,3.05893 0.19124,0.49837 2.05225,0.22214 2.73862,-0.40649 z m 15.09526,3.83554 c -0.0696,-0.11685 0.24685,-2.44929 0.70333,-5.18319 0.57083,-3.41885 0.95316,-5.04684 1.22461,-5.2145 0.26829,-0.16572 0.30824,-0.3302 0.12475,-0.51368 -0.14844,-0.14845 -0.22416,-0.74961 -0.16824,-1.33592 0.0811,-0.85079 0.22533,-1.09705 0.71421,-1.21975 1.4126,-0.35454 1.99117,0.33525 1.59733,1.90441 -0.12352,0.49215 -0.33626,0.63455 -0.94797,0.63455 -0.43379,0 -0.78871,0.11906 -0.78871,0.26458 0,0.14552 0.36259,0.26458 0.80574,0.26458 0.76494,0 0.79777,0.0435 0.64834,0.8599 -0.0866,0.47294 -0.48256,2.82443 -0.87996,5.22552 l -0.72255,4.36562 -1.09212,0.0802 c -0.60067,0.0441 -1.14911,-0.0154 -1.21876,-0.1323 z m 5.82171,-0.014 c -0.098,-0.17938 0.24045,-2.51021 1.15258,-7.9375 l 0.32238,-1.91823 h 0.99886 c 0.56048,0 1.05005,0.14515 1.1155,0.33073 0.087,0.24668 0.33402,0.20568 0.97195,-0.16134 1.13346,-0.6521 1.41121,-0.32868 1.18462,1.37944 -0.14702,1.10825 -0.27598,1.36159 -0.6931,1.36159 -1.43862,0 -2.15729,1.48508 -2.46476,5.09323 l -0.17474,2.05052 h -1.15244 c -0.63384,0 -1.20122,-0.0893 -1.26085,-0.19844 z m -83.663437,-0.32001 c -0.291042,-0.12118 -0.886354,-0.5977 -1.322917,-1.05894 -0.775959,-0.81981 -0.793639,-0.89901 -0.788821,-3.53322 0.0037,-2.03369 0.115988,-2.89978 0.457735,-3.53113 0.985512,-1.82068 2.974972,-2.62054 4.595664,-1.84769 1.371859,0.65419 1.950969,1.8233 1.952141,3.94099 l 9.89e-4,1.78594 h -2.38125 c -2.230122,0 -2.38125,0.0347 -2.38125,0.54656 0,1.40773 1.272903,2.12315 1.852084,1.04094 0.218284,-0.40787 0.55399,-0.52917 1.464516,-0.52917 1.344644,0 1.442926,0.22914 0.653579,1.52377 -0.942038,1.54507 -2.686172,2.25164 -4.10247,1.66195 z m 2.632064,-6.39236 c 0.05463,-0.0554 0.03644,-0.42807 -0.04044,-0.82826 -0.247959,-1.29079 -2.19475,-0.86643 -2.19475,0.47841 0,0.50059 0.131691,0.56358 1.067927,0.51075 0.587362,-0.0331 1.112628,-0.10555 1.167262,-0.1609 z m 11.87345,6.06674 c 0.08307,-0.33613 0.469947,-2.69474 0.859729,-5.24135 0.389781,-2.54661 0.755385,-4.68197 0.812456,-4.74524 0.05707,-0.0633 0.607621,-0.1228 1.223449,-0.1323 1.118661,-0.0172 1.119624,-0.0164 1.053883,0.90879 -0.03619,0.50932 -0.397994,2.89057 -0.804005,5.29167 l -0.738204,4.36562 -1.279173,0.082 c -1.21953,0.0781 -1.272127,0.0535 -1.128135,-0.52917 z m 7.323714,-0.17246 c -2.044637,-2.04464 -1.522889,-7.5248 0.856411,-8.99529 2.191022,-1.35413 4.752128,-0.15495 5.002966,2.34253 l 0.09264,0.92241 h -1.187 c -0.978797,0 -1.203746,-0.0928 -1.282454,-0.52917 -0.244456,-1.35522 -1.476743,-1.12924 -1.88646,0.34595 -0.403945,1.45441 -0.343133,3.36859 0.119213,3.7523 0.480327,0.39864 1.14513,0.17968 1.379132,-0.45422 0.09523,-0.25796 0.300885,-0.5565 0.457021,-0.66341 0.383487,-0.26259 1.525182,-0.24613 1.957935,0.0282 0.542888,0.34418 -0.04937,2.14131 -1.039397,3.15394 -0.733439,0.75018 -0.997347,0.84867 -2.273904,0.84867 -1.234008,0 -1.553591,-0.10942 -2.196107,-0.75194 z m 8.462663,-0.10795 c -1.391108,-2.28158 -0.05536,-4.97413 2.645354,-5.33239 1.526582,-0.20251 2.145712,-0.88801 1.439692,-1.59403 -0.40408,-0.40407 -1.186682,-0.23998 -1.533752,0.32159 -0.0698,0.11294 -0.496079,0.23348 -0.947281,0.26786 -1.03178,0.0786 -1.251752,-0.41921 -0.676643,-1.53135 0.483558,-0.93509 1.763664,-1.59107 3.101926,-1.58955 0.9686,10e-4 2.51851,0.83248 2.76902,1.48531 0.0897,0.23371 -0.0602,2.31663 -0.33305,4.6287 l -0.49611,4.20375 H 102.028 c -0.5202,0 -1.08871,-0.14287 -1.26333,-0.3175 -0.24694,-0.24694 -0.38806,-0.24694 -0.635,0 -0.174632,0.17463 -0.831222,0.3175 -1.459101,0.3175 -1.004019,0 -1.20478,-0.10363 -1.665885,-0.85989 z m 3.802216,-2.39635 c 0.27061,-0.554 0.42211,-1.07719 0.33667,-1.16264 -0.28937,-0.28936 -2.147751,0.60001 -2.238508,1.07128 -0.300705,1.56142 1.149728,1.6311 1.901838,0.0914 z m -62.801266,2.79322 c 1.48e-4,-0.21798 0.932606,-2.79622 1.315744,-3.63802 0.274301,-0.60267 3.032905,-8.16973 3.29415,-9.0361 0.136474,-0.45259 0.418068,-0.58903 1.372338,-0.66493 0.660347,-0.0525 1.298583,0.0251 1.418304,0.17257 0.167611,0.20639 1.613112,9.69444 1.935369,12.70346 0.04835,0.45146 -0.123193,0.54082 -1.16808,0.6085 l -1.224751,0.0793 -0.175638,-1.17123 -0.175636,-1.17123 -1.320252,-0.17514 c -0.726139,-0.0963 -1.448909,-0.0956 -1.606156,0.002 -0.157247,0.0972 -0.51611,0.69711 -0.79747,1.33318 -0.493601,1.11587 -0.55294,1.15648 -1.689809,1.15648 -0.648036,0 -1.178184,-0.0893 -1.178113,-0.19844 z m 6.126292,-6.61065 c -0.04373,-0.6057 -0.169442,-1.4348 -0.279358,-1.84244 -0.191108,-0.70877 -0.224967,-0.67423 -0.774496,0.7901 -0.822783,2.19247 -0.780481,2.54502 0.279358,2.32826 0.815046,-0.16669 0.850384,-0.2249 0.774496,-1.27592 z m 5.690941,6.61065 c -0.06606,-0.10914 0.221306,-2.28203 0.638601,-4.82864 0.417296,-2.54662 0.761977,-4.65998 0.765958,-4.69636 0.02349,-0.21466 2.123909,-0.0184 2.123909,0.19844 0,0.39121 0.510389,0.32116 0.96384,-0.13229 0.653722,-0.65372 2.12725,-0.50632 2.631485,0.26324 l 0.432522,0.66011 0.784503,-0.66011 c 1.356942,-1.14179 2.868713,-0.78361 3.392606,0.8038 0.245848,0.74493 0.22057,1.6606 -0.122407,4.4338 -0.23773,1.92224 -0.482949,3.64382 -0.544925,3.82572 -0.06516,0.19126 -0.562499,0.33073 -1.179322,0.33073 -0.995405,0 -1.216832,-0.18171 -1.087202,-0.89219 0.02315,-0.1269 0.215911,-1.54859 0.428353,-3.1593 0.381529,-2.8927 0.321466,-3.33527 -0.455033,-3.35279 -0.405006,-0.009 -0.999334,0.86058 -1.133073,1.6581 -0.151617,0.90413 -0.671764,5.19437 -0.671764,5.5408 0,0.22037 -2.207517,0.29092 -2.421056,0.0774 -0.0704,-0.0704 0.03286,-1.29079 0.229462,-2.71198 0.463524,-3.35066 0.384752,-4.43606 -0.321948,-4.43606 -0.816477,0 -1.369882,1.44138 -1.734439,4.51745 l -0.326927,2.75859 h -1.136515 c -0.625083,0 -1.190566,-0.0893 -1.256628,-0.19844 z m 24.285451,-1.32291 c 0.240548,-2.16449 1.210474,-8.06557 1.367424,-8.31953 0.251717,-0.40728 1.888504,-0.23298 2.062176,0.2196 0.149008,0.38831 0.21323,0.39153 0.62362,0.0313 0.251627,-0.22088 0.725395,-0.48323 1.052817,-0.58301 0.555847,-0.16939 0.595313,-0.10274 0.595313,1.00539 0,1.56114 -0.201452,2.02207 -0.888204,2.03226 -0.311851,0.005 -0.77315,0.16497 -1.025104,0.3563 -0.518052,0.39342 -1.139682,2.6661 -1.401908,5.12539 l -0.176324,1.65365 h -1.189445 -1.189442 z m 153.705852,-0.71003 c -0.0832,-0.21687 -0.37843,-0.4664 -0.65603,-0.5545 -0.3754,-0.11915 -0.50547,-0.40986 -0.50764,-1.13455 -0.007,-2.42663 -0.23604,-2.90631 -2.12902,-4.46361 l -1.79333,-1.47531 -0.0965,-1.61876 c -0.0821,-1.37664 -0.006,-1.73063 0.50742,-2.36667 0.33217,-0.41135 0.60394,-1.08284 0.60394,-1.49222 0,-0.62257 0.19426,-0.83562 1.18774,-1.30261 1.5296,-0.719 2.09325,-0.7276 1.9106,-0.0291 -0.0998,0.38182 -0.008,0.52917 0.32942,0.52917 0.25728,0 1.24933,0.35436 2.20456,0.78748 0.95522,0.43312 2.22184,0.86505 2.81471,0.95986 0.59288,0.0948 1.07797,0.27622 1.07797,0.40314 0,0.12692 0.23394,0.23077 0.51985,0.23077 0.56327,0 1.06866,0.72378 0.87755,1.25677 -0.0652,0.1819 0.0103,0.33073 0.16806,0.33073 0.15764,0 0.28676,0.38695 0.28694,0.85989 v 0.8599 l 0.66252,-0.77034 c 0.92469,-1.07523 1.09537,-0.69026 0.42561,0.95995 -0.92149,2.27039 -1.35097,5.20613 -1.07543,7.35101 l 0.11896,0.92605 -3.64345,0.0736 c -3.03109,0.0613 -3.66887,0.007 -3.79476,-0.32065 z m 16.9632,-0.13152 c -2.05602,-0.49486 -2.86829,-1.52841 -3.27728,-4.17007 -0.59971,-3.87353 -0.23842,-7.98573 0.82079,-9.34203 0.7893,-1.01068 1.5164,-1.30366 3.25024,-1.30964 2.07902,-0.007 2.77493,0.37473 3.55632,1.95165 0.57327,1.15696 0.65426,1.70711 0.72059,4.89479 0.0411,1.97523 -0.0537,4.18664 -0.21076,4.91424 -0.34399,1.59413 -1.27768,2.66766 -2.52339,2.90136 -0.50538,0.0948 -1.05926,0.21251 -1.23081,0.26157 -0.17158,0.049 -0.66913,0.003 -1.1057,-0.10187 z m 1.48897,-2.8373 c 0.27401,-0.33028 0.36312,-1.46427 0.36312,-4.62079 0,-3.64805 -0.0599,-4.24295 -0.468,-4.65105 -0.61171,-0.61168 -1.28815,-0.21322 -1.62359,0.95641 -0.37033,1.29132 0.15513,8.18956 0.64757,8.50106 0.53425,0.33793 0.66519,0.31544 1.0809,-0.18563 z m 8.69749,2.57293 c -0.50932,-0.10184 -1.20031,-0.33388 -1.53551,-0.51563 -0.74141,-0.40199 -1.63716,-1.811 -1.63851,-2.57738 0,-0.47196 0.19553,-0.58305 1.23838,-0.70059 1.4818,-0.16702 1.84039,-0.0573 2.01674,0.617 0.17682,0.67612 0.9298,0.94037 1.37414,0.48224 0.19574,-0.2018 0.44085,-0.95059 0.54472,-1.66398 0.18629,-1.27939 0.18026,-1.29427 -0.44251,-1.09231 -2.32974,0.75549 -3.95095,0.27979 -4.63624,-1.36037 -0.57489,-1.37588 -0.47774,-5.31563 0.15673,-6.35619 0.83421,-1.36814 1.73191,-1.79907 3.7491,-1.79973 1.96932,-5.3e-4 2.97995,0.50564 3.62164,1.81429 0.61018,1.2444 0.9366,5.40736 0.64548,8.23209 -0.30451,2.95456 -0.67342,3.63492 -2.46904,4.5533 -1.26085,0.64489 -1.24661,0.6429 -2.62512,0.36726 z m 1.49995,-8.17879 c 0.45686,-0.73153 0.30935,-3.37305 -0.21778,-3.90017 -0.59557,-0.59558 -0.8981,-0.3355 -1.25404,1.07814 -0.33946,1.34805 -0.16698,2.48691 0.45106,2.97861 0.54919,0.43694 0.6608,0.41982 1.02076,-0.15658 z m -148.95814,2.95966 c -0.30659,-0.30658 -0.20208,-0.57743 0.46491,-1.20487 0.77079,-0.72509 0.9622,-1.36905 0.41412,-1.39323 -0.30196,-0.0133 -0.38617,-0.3222 -0.35209,-1.29153 0.0246,-0.70072 0.10599,-1.33523 0.1808,-1.41004 0.18009,-0.18009 2.01914,-0.17553 2.20012,0.005 0.32957,0.32957 -0.51565,3.93571 -1.06328,4.53649 -0.60692,0.66581 -1.54936,1.05295 -1.84458,0.75772 z m -24.284276,-3.1176 c -0.07754,-0.0775 -0.07322,-0.64712 0.0096,-1.26575 0.161631,-1.20732 0.544677,-1.45488 1.773793,-1.14639 0.585798,0.14703 0.646732,0.28283 0.574384,1.2802 -0.07968,1.09854 -0.09738,1.11694 -1.148863,1.19433 -0.587362,0.0432 -1.131372,0.0152 -1.208913,-0.0624 z M 9.4305016,130.72627 c 0,-22.05261 -0.02215,-23.13007 -0.4838538,-23.54791 -0.4005659,-0.36251 -1.106506,-0.43789 -4.1010416,-0.43789 H 1.2284188 v -2.91041 -2.91042 H 12.482161 23.735904 l -0.0751,2.84427 -0.0751,2.84427 -3.704166,0.068 c -3.396792,0.0624 -3.74259,0.11421 -4.167188,0.62463 -0.433149,0.52069 -0.46302,2.03976 -0.46302,23.54604 v 22.98944 H 12.340913 9.4304956 Z m 18.2562504,-3.3483 v -26.47623 l 2.844271,0.0751 2.844271,0.0751 0.132291,11.27056 c 0.105812,9.01469 0.204973,11.35808 0.495417,11.70781 0.31207,0.37578 1.000299,0.43669 4.894791,0.43321 2.492417,-0.002 4.710261,-0.11688 4.928542,-0.25478 0.339381,-0.2144 0.416039,-1.90987 0.529167,-11.70376 l 0.132291,-11.45304 2.844271,-0.0751 2.844271,-0.0751 v 26.46728 26.46729 h -2.910417 -2.910416 v -11.33608 c 0,-10.64619 -0.02945,-11.36272 -0.483855,-11.77396 -0.410329,-0.37134 -1.168008,-0.43788 -4.986075,-0.43788 -4.014682,0 -4.549325,0.0521 -4.937196,0.48064 -0.386792,0.4274 -0.442622,1.72425 -0.504026,11.70781 l -0.06906,11.22717 -2.844271,0.0751 -2.844271,0.0751 z m 27.516666,0 v -26.46401 l 11.310937,0.069 11.310938,0.069 0.0751,2.84427 0.0751,2.84427 h -7.946451 c -7.593674,0 -7.969943,0.0235 -8.475617,0.52917 -0.505248,0.50525 -0.529167,0.88194 -0.529167,8.33437 0,7.45244 0.02392,7.82913 0.529167,8.33438 0.487664,0.48766 0.881943,0.52917 5.027083,0.52917 h 4.497917 v 2.91041 2.91042 h -4.615207 c -4.469286,0 -4.628226,0.0186 -5.027083,0.58804 -0.350276,0.50009 -0.411877,1.76022 -0.411877,8.42566 0,7.23051 0.03714,7.87123 0.47942,8.27149 0.417954,0.37824 1.49497,0.44286 8.400521,0.50403 l 7.921101,0.0702 v 2.77813 2.77812 l -11.310938,0.069 -11.310937,0.069 z m 53.308752,26.14212 c -0.0724,-0.18988 -0.10093,-12.0729 -0.0634,-26.4067 l 0.0682,-26.06146 h 7.9375 c 7.59696,0 7.99105,0.0247 9.1856,0.5766 1.74993,0.80843 3.7738,2.79483 4.63566,4.54983 l 0.73082,1.48815 v 7.56414 7.56413 l -0.85989,1.6673 c -0.47295,0.91702 -0.8599,1.8921 -0.8599,2.16685 0,0.27475 0.38695,1.2403 0.8599,2.14565 l 0.85989,1.6461 v 8.33438 8.33437 l -0.68641,1.45521 c -0.37753,0.80036 -1.21097,1.97976 -1.85209,2.62088 -0.64111,0.64111 -1.82051,1.47455 -2.62087,1.85208 -1.45015,0.68403 -1.48258,0.6867 -9.3293,0.76707 -6.28982,0.0644 -7.90057,0.0112 -8.0057,-0.26458 z m 14.93743,-5.98808 c 1.79559,-0.96298 1.89315,-1.45367 1.81006,-9.10372 l -0.0739,-6.80906 -0.99586,-0.99615 -0.99585,-0.99615 -3.9277,-0.0846 c -3.36353,-0.0725 -3.99007,-0.0222 -4.36196,0.34963 -0.38444,0.38445 -0.43425,1.40108 -0.43425,8.86313 0,7.30983 0.0552,8.48406 0.41577,8.84464 0.65261,0.6526 7.31893,0.59991 8.56374,-0.0677 z m -0.4382,-24.22098 c 0.46826,-0.19953 1.14905,-0.68509 1.51285,-1.07903 0.65599,-0.71033 0.66214,-0.76262 0.74381,-6.31795 0.0453,-3.08094 0.011,-5.98402 -0.0762,-6.4513 -0.0872,-0.46728 -0.5232,-1.21425 -0.96888,-1.65992 l -0.81032,-0.81033 -4.40514,0.0724 -4.40514,0.0724 -0.0729,7.80521 c -0.0889,9.52388 -0.48326,8.73125 4.34401,8.73125 2.19366,0 3.56958,-0.12063 4.13788,-0.36278 z m 12.88994,4.06694 v -26.46401 l 11.31093,0.069 11.31094,0.069 0.0751,2.84427 0.0751,2.84427 h -7.94645 c -7.59367,0 -7.96994,0.0235 -8.47562,0.52917 -0.50524,0.50525 -0.52916,0.88194 -0.52916,8.33437 0,7.45244 0.0239,7.82913 0.52916,8.33438 0.48767,0.48766 0.88195,0.52917 5.02709,0.52917 h 4.49791 v 2.91041 2.91042 h -4.6152 c -4.46929,0 -4.62823,0.0186 -5.02708,0.58804 -0.35028,0.50009 -0.41188,1.76022 -0.41188,8.42566 0,7.23051 0.0371,7.87123 0.47942,8.27149 0.41795,0.37824 1.49497,0.44286 8.40052,0.50403 l 7.9211,0.0702 v 2.77813 2.77812 l -11.31094,0.069 -11.31093,0.069 z m 26.19374,26.04219 c 0,-0.50864 6.84231,-51.06943 7.02424,-51.90521 0.12757,-0.586 0.19334,-0.59531 4.20777,-0.59531 3.65368,0 4.0929,0.0482 4.21966,0.46302 0.19059,0.62373 7.03792,51.05862 7.03792,51.83875 0,0.60582 -0.0425,0.6149 -2.88097,0.6149 h -2.88097 l -0.14938,-0.8599 c -0.0822,-0.47294 -0.28695,-1.87193 -0.45509,-3.10885 -0.48047,-3.53446 -0.34663,-3.43959 -4.85209,-3.43959 -3.00335,0 -3.8649,0.0807 -4.11789,0.3855 -0.17596,0.21202 -0.54209,1.84913 -0.81362,3.63802 -0.27153,1.78889 -0.49933,3.28229 -0.50622,3.31867 -0.007,0.0364 -1.32221,0.0661 -2.92294,0.0661 -2.47055,0 -2.91042,-0.0629 -2.91042,-0.41615 z m 14.23459,-13.3951 c 0.17462,-0.17463 0.31448,-0.68064 0.3108,-1.12448 -0.0131,-1.57795 -2.06084,-15.69892 -2.35673,-16.25181 -0.37576,-0.70211 -1.48896,-0.7451 -1.8495,-0.0714 -0.14454,0.27007 -0.76639,4.18978 -1.38187,8.71047 -0.93206,6.84578 -1.06115,8.28922 -0.77245,8.63708 0.27423,0.33042 0.90905,0.41766 3.03943,0.41766 1.74164,0 2.80497,-0.11215 3.01032,-0.3175 z m 18.65952,13.44165 c -3.29455,-1.06375 -6.01704,-4.37317 -6.22571,-7.5679 l -0.0778,-1.19063 h 2.76038 2.76038 l 0.54691,1.04924 c 0.3008,0.57708 0.96363,1.33007 1.47295,1.6733 0.86554,0.58329 1.13053,0.61845 4.05587,0.53826 l 3.12983,-0.0858 0.90507,-0.9883 0.90507,-0.9883 v -6.71508 c 0,-6.398 -0.026,-6.74808 -0.54969,-7.41389 -0.90165,-1.14626 -1.53106,-1.3266 -5.27115,-1.51033 -4.53773,-0.22291 -6.15897,-0.76984 -8.07633,-2.72456 -0.73119,-0.74546 -1.62416,-1.95068 -1.98437,-2.67829 -0.65289,-1.31881 -0.65492,-1.34756 -0.65492,-9.26042 v -7.9375 l 0.74093,-1.50881 c 0.8424,-1.71545 2.7196,-3.53915 4.60893,-4.47758 1.186,-0.58908 1.55295,-0.62819 5.89493,-0.62819 4.32564,0 4.71229,0.0408 5.87808,0.62027 2.87344,1.42827 5.13473,4.49638 5.29551,7.18494 l 0.0712,1.19062 -2.71893,0.0755 -2.71893,0.0755 -0.45607,-0.8449 c -0.25084,-0.46469 -0.77347,-1.21303 -1.16141,-1.66297 -0.69891,-0.81062 -0.73227,-0.81891 -3.65774,-0.90816 -3.29929,-0.10067 -4.14228,0.11718 -5.16728,1.33532 l -0.6561,0.77973 v 6.70494 c 0,3.68771 0.0713,6.89085 0.15855,7.11809 0.0872,0.22724 0.59321,0.68346 1.12448,1.01383 0.84871,0.52777 1.42044,0.61761 4.71114,0.74027 3.62669,0.13519 3.80245,0.16875 5.55439,1.06066 1.4188,0.72231 2.06914,1.26527 3.01397,2.51634 2.01506,2.66819 2.15114,3.44041 2.05605,11.66787 l -0.0821,7.10511 -0.82368,1.71979 c -1.00872,2.10616 -2.41547,3.55586 -4.33569,4.46807 -1.35819,0.64521 -1.73746,0.69529 -5.68854,0.75102 -2.97474,0.042 -4.56182,-0.0463 -5.33819,-0.29702 z m 28.22464,-22.74044 c 0,-22.05261 -0.0221,-23.13007 -0.48385,-23.54791 -0.40057,-0.36251 -1.10651,-0.43789 -4.10104,-0.43789 h -3.61719 v -2.91328 -2.91329 l 11.17865,0.069 11.17864,0.069 v 2.77813 2.77812 l -3.70417,0.068 c -3.3968,0.0624 -3.74258,0.11421 -4.16718,0.62463 -0.43315,0.52069 -0.46302,2.03976 -0.46302,23.54604 v 22.98944 h -2.91042 -2.91042 z M 148.46904,83.018933 C 148.178,82.982206 127.16347,82.907062 101.77009,82.851944 49.259374,82.737969 -5.5882637,82.456249 -18.483039,82.234272 c -6.072408,-0.104532 -9.134104,-0.05882 -10.054166,0.150111 -0.81552,0.185192 -1.627355,0.213323 -2.116667,0.07334 -0.745425,-0.213251 -0.798523,-0.316671 -0.872152,-1.698736 -0.07301,-1.370465 -0.03381,-1.482852 0.570026,-1.634405 0.356636,-0.08951 2.356448,-0.04981 4.444027,0.08822 2.087579,0.138036 18.3807546,0.325787 36.2070566,0.417224 17.8263014,0.09144 32.8281764,0.208574 33.3374994,0.260297 0.509323,0.05173 51.825259,0.170937 114.035415,0.264915 62.21016,0.09398 113.2582,0.21677 113.4401,0.272872 0.1819,0.0561 0.33248,0.43316 0.33462,0.837912 l 0.004,0.735907 0.33465,-0.661459 c 0.48516,-0.95899 1.35845,-0.879112 1.44626,0.132292 0.0379,0.436562 -0.0478,0.972344 -0.19037,1.190625 -0.21889,0.335042 -0.34695,0.342532 -0.82187,0.04807 -0.47752,-0.296061 -0.63413,-0.284038 -1.03587,0.07953 -0.43371,0.392493 -5.53853,0.422735 -61.02726,0.361518 -33.30474,-0.03674 -60.79215,-0.09685 -61.08319,-0.13358 z m 14.70128,-1.03736 c 0.26248,-0.316272 0.1193,-0.376512 -0.89493,-0.376512 -0.66407,0 -1.28099,-0.119063 -1.37093,-0.264584 -0.0899,-0.145521 -1.10197,-0.264583 -2.24896,-0.264583 -1.14699,0 -2.15902,0.119062 -2.24896,0.264583 -0.0942,0.152488 -1.50205,0.264584 -3.3229,0.264584 -2.6095,0 -3.15939,0.06799 -3.15939,0.390628 0,0.326017 0.733,0.4026 4.43177,0.463021 6.18914,0.1011 8.43531,-0.02048 8.8143,-0.477137 z m -2.68945,-4.889698 c -0.20409,-0.127204 -0.056,-1.706819 0.69308,-7.393064 0.0671,-0.509323 0.23991,-1.75948 0.38403,-2.778125 0.39006,-2.756913 0.35781,-3.910938 -0.10201,-3.651168 -0.20599,0.116371 -1.3761,1.699866 -2.60023,3.518876 -1.22414,1.81901 -2.58876,3.843073 -3.03249,4.497917 -0.44374,0.654843 -1.47702,2.232422 -2.29618,3.505729 l -1.48938,2.315104 h -1.49424 c -1.40279,0 -1.55373,-0.06444 -2.46641,-1.053052 -0.53469,-0.579178 -1.31873,-1.740038 -1.74231,-2.579688 -0.71346,-1.414277 -0.76955,-1.740836 -0.76214,-4.437052 0.008,-2.786135 0.0485,-2.995154 0.95652,-4.894791 0.97806,-2.046183 3.06368,-4.431572 4.55353,-5.208037 2.19422,-1.143553 4.82126,-1.512783 7.45883,-1.048341 6.15189,1.083266 9.66814,5.545794 9.31147,11.817335 -0.14104,2.480093 -0.57613,3.590165 -2.34636,5.986433 l -1.0144,1.373148 -1.88728,0.08817 c -1.038,0.04849 -1.99382,0.02177 -2.12403,-0.05939 z m 18.10885,-0.130598 c -0.26208,-0.682977 0.39288,-5.098976 0.93824,-6.325889 0.65794,-1.48023 1.72539,-2.674744 3.12117,-3.492731 1.09682,-0.642778 1.34237,-0.682253 3.34556,-0.53784 l 2.16185,0.155852 0.62229,-1.32315 c 0.83394,-1.773193 2.22451,-2.701278 4.08956,-2.729432 0.75546,-0.0114 1.62483,0.07131 1.93192,0.183802 0.47708,0.174764 0.7546,-0.06444 1.90657,-1.643277 1.76673,-2.421426 3.35221,-3.296244 5.85775,-3.232125 0.93945,0.02404 1.82646,0.162086 1.97115,0.306767 0.36415,0.364154 1.83621,0.330322 2.21749,-0.05096 0.17271,-0.172711 0.88113,-0.330566 1.57427,-0.35079 1.38229,-0.04033 2.45088,-0.315813 2.45088,-0.631839 0,-0.111461 0.14882,-0.219961 0.33073,-0.24111 0.1819,-0.02115 0.88203,-0.110948 1.55584,-0.199552 1.48486,-0.195252 2.71297,0.34895 3.36199,1.489766 0.5031,0.884317 0.80842,0.941822 1.92764,0.363055 0.83811,-0.433404 1.92357,-0.340331 3.09886,0.265712 l 0.61776,0.318555 -0.74063,0.906882 c -0.40736,0.498785 -2.02569,2.292481 -3.59631,3.985991 -2.68047,2.890205 -2.93181,3.090527 -4.09684,3.265234 -0.9411,0.141127 -1.44187,0.40523 -2.07129,1.0924 l -0.83012,0.906274 -1.27371,-0.563423 c -0.9002,-0.398203 -1.60542,-0.526037 -2.40487,-0.435927 -1.04494,0.11778 -1.20828,0.04708 -2.14312,-0.927646 -1.04764,-1.092328 -2.73632,-2.03556 -3.65781,-2.043109 -1.18455,-0.0097 -2.63239,0.620538 -3.7123,1.615959 -1.01551,0.936067 -1.24621,1.034612 -2.06324,0.881336 -1.15186,-0.216089 -2.6195,0.434643 -3.37581,1.496789 -0.4604,0.646573 -0.72227,0.761129 -1.73988,0.761129 -1.52104,0 -2.53312,0.69786 -3.11266,2.146282 -0.24093,0.602123 -0.39541,1.137404 -0.3433,1.189511 0.0521,0.05211 0.50279,-0.02228 1.00151,-0.165317 1.28334,-0.368057 2.34906,-0.323686 3.75824,0.156472 l 1.22245,0.416528 1.40437,-1.037204 c 2.62841,-1.941221 3.85029,-2.296064 6.5785,-1.910437 2.77165,0.391771 4.49265,1.065737 5.63278,2.205863 l 1.04394,1.043938 1.21832,-0.436626 c 1.45919,-0.522947 2.87177,-0.548267 4.65792,-0.08349 1.06163,0.276248 1.53194,0.279643 2.38125,0.0172 1.60309,-0.495382 3.80257,-0.431536 5.07775,0.147402 1.01776,0.462068 1.22455,0.472731 2.51354,0.129622 1.82901,-0.48686 2.72488,-0.475425 4.10702,0.05242 1.08101,0.41284 1.2033,0.406808 2.68184,-0.132291 2.43658,-0.888426 3.19609,-0.775087 5.36924,0.80124 0.3479,0.252354 0.71811,0.19753 1.85209,-0.274291 1.64946,-0.686297 3.3375,-0.967092 4.32456,-0.71936 0.38272,0.09606 1.20105,0.640326 1.81853,1.209487 l 1.12266,1.034839 1.54482,-0.779222 c 2.33751,-1.179071 5.03812,-0.998463 6.76217,0.452231 l 0.81044,0.681945 2.57122,-0.615831 c 3.44416,-0.824918 6.03282,-0.828579 8.18544,-0.01159 2.89904,1.100285 2.6982,1.319138 -1.29479,1.411017 -1.93913,0.04462 -21.6526,0.121619 -43.80767,0.171109 -38.0037,0.08489 -40.29191,0.06407 -40.45777,-0.368141 z M 99.917998,76.479518 c -3.714187,-1.082051 -6.090981,-3.862597 -6.086724,-7.120692 l 0.0013,-1.001444 2.711979,0.0754 2.711975,0.0754 0.0802,0.959225 c 0.1162,1.390627 1.031062,2.143713 2.780472,2.288786 1.32283,0.109699 1.45309,0.06506 2.1187,-0.725966 1.36301,-1.619848 0.92999,-2.147464 -2.71405,-3.306948 -4.085706,-1.300012 -5.326002,-2.309143 -5.831628,-4.744733 -0.383384,-1.84675 0.340794,-5.450573 1.095279,-5.450573 0.122161,0 0.222113,-0.168475 0.222113,-0.374389 0,-0.610914 2.206514,-2.368773 3.600606,-2.868491 1.83195,-0.656666 5.1054,-0.614424 7.41788,0.09572 2.90393,0.891776 4.31077,2.668785 4.32444,5.462262 0.003,0.582963 -0.0601,0.595313 -3.03476,0.595313 -3.02798,0 -3.0382,-0.0021 -3.20543,-0.668438 -0.21142,-0.842352 -0.8421,-1.183645 -2.18727,-1.183645 -1.39558,0 -2.50744,1.101173 -2.28913,2.267123 0.0526,0.281051 0.10479,0.646264 0.11592,0.811584 0.0336,0.498775 1.66278,1.118295 3.74418,1.423771 2.44294,0.358539 3.3463,0.685801 4.30333,1.558988 1.22852,1.120884 1.60036,2.08404 1.5925,4.124992 -0.0131,3.415758 -1.85444,6.058866 -5.07276,7.28173 -1.74004,0.661165 -4.87401,0.869318 -6.399092,0.425019 z m 31.619732,0.03231 c -0.15421,-0.448738 -2.49193,-8.005468 -2.88522,-9.326562 -0.45156,-1.5168 -1.00074,-1.35779 -1.37072,0.396875 -0.16876,0.800365 -0.69825,3.151849 -1.17664,5.225521 l -0.8698,3.770312 h -2.90217 -2.90216 l 0.15337,-0.727604 c 0.0844,-0.400182 0.69015,-3.346979 1.3462,-6.548437 0.65606,-3.201459 1.61201,-7.844896 2.12434,-10.31875 0.51233,-2.473855 0.93345,-4.587214 0.93583,-4.696355 0.002,-0.10914 1.35938,-0.198437 3.01555,-0.198437 h 3.01122 l 0.7888,2.844271 c 0.43384,1.564349 1.13261,4.241312 1.55284,5.948806 0.42022,1.707494 0.84875,3.106479 0.95228,3.108854 0.25466,0.0058 0.74614,-1.988535 2.2158,-8.991514 0.0764,-0.363802 0.25587,-1.107943 0.39894,-1.653646 l 0.26013,-0.992188 h 2.76792 c 1.52236,0 2.76793,0.0977 2.76793,0.217103 0,0.119407 -0.24194,1.339797 -0.53764,2.711979 -0.29571,1.372182 -1.00498,4.816595 -1.57617,7.654252 -1.36769,6.794709 -2.37113,11.406608 -2.54191,11.682944 -0.23209,0.375528 -5.39723,0.275169 -5.52872,-0.107424 z m 137.18444,0.06615 c 0.52146,-0.336997 1.5875,-0.336997 1.5875,0 0,0.145521 -0.44649,0.262761 -0.99219,0.260533 -0.73803,-0.003 -0.89054,-0.06976 -0.59531,-0.260533 z M 58.977906,76.098793 c -1.787076,-0.57663 -3.608211,-2.120691 -4.442071,-3.766238 -1.008499,-1.990174 -1.400739,-5.899206 -0.840754,-8.378895 0.96664,-4.280411 3.482354,-7.657441 6.991242,-9.384861 1.623525,-0.799258 1.951683,-0.863885 4.419277,-0.870324 3.354901,-0.0088 5.017992,0.544084 6.774595,2.251987 2.532277,2.462074 3.164496,6.594573 1.719297,11.238198 -1.423564,4.57411 -4.063918,7.524851 -7.920643,8.851761 -1.924513,0.662127 -4.753422,0.686771 -6.700943,0.05837 z m 5.776555,-5.54183 c 1.682043,-1.128562 2.580431,-2.780569 2.955438,-5.434624 0.55926,-3.958089 -0.716944,-6.476221 -3.14357,-6.202705 -1.407986,0.1587 -2.569835,0.98168 -3.3825,2.395946 -1.547442,2.692984 -1.625166,7.711393 -0.142398,9.19416 0.66816,0.66816 2.748142,0.694613 3.71303,0.04722 z m 9.096967,5.748157 c -0.153432,-0.248261 0.332251,-3.008648 2.116693,-12.030268 0.345403,-1.74625 0.900952,-4.746234 1.234554,-6.666631 0.561779,-3.23391 0.653397,-3.503389 1.241232,-3.650926 1.048472,-0.26315 5.045665,-0.08689 5.28765,0.23316 0.122595,0.162148 0.851609,2.795126 1.620028,5.851064 0.768421,3.055937 1.507675,5.674317 1.64279,5.818622 0.416936,0.445297 0.629875,-0.230085 1.399577,-4.43903 0.785924,-4.297652 1.373013,-7.059459 1.53512,-7.221566 0.17689,-0.176891 5.230508,-0.195267 5.406118,-0.01966 0.09341,0.09341 0.03996,0.795642 -0.118767,1.560522 -0.158728,0.764881 -1.146828,5.7701 -2.195777,11.122709 l -1.907177,9.732016 -2.804118,-0.07472 -2.80412,-0.07473 -1.154739,-3.836459 c -0.635106,-2.110052 -1.399958,-4.699661 -1.699673,-5.754687 -0.299715,-1.055026 -0.642596,-1.918229 -0.76196,-1.918229 -0.247431,0 -0.21294,-0.137863 -1.290725,5.159375 -1.012219,4.974992 -1.295358,6.03605 -1.675744,6.279803 -0.469313,0.300736 -4.879427,0.239538 -5.070962,-0.07037 z m 37.443662,-0.2317 c 0,-0.768059 3.0516,-17.011608 3.95625,-21.058984 l 0.17742,-0.79375 2.82795,-0.0751 2.82796,-0.0751 v 0.684129 c 0,0.376271 -0.23732,1.898346 -0.52737,3.382389 -0.59328,3.035556 -2.597,13.900851 -2.93724,15.927427 -0.46153,2.748983 -0.14122,2.513541 -3.4196,2.513541 -2.68175,0 -2.90537,-0.03883 -2.90537,-0.504557 z M 19.960937,76.03738 c -3.878341,-0.593579 -6.826268,-3.7348 -6.826268,-7.273861 v -0.916795 h 2.612017 2.612017 l 0.16111,1.007518 c 0.233622,1.460997 1.172821,2.229601 2.899439,2.372786 1.322827,0.109699 1.453094,0.06506 2.118701,-0.725967 1.367338,-1.624988 0.9056,-2.188356 -2.730368,-3.331335 -2.975038,-0.935213 -4.002309,-1.483708 -4.842909,-2.585791 -0.829691,-1.087779 -1.31777,-3.026368 -1.100333,-4.37038 0.219988,-1.359797 0.913918,-3.214747 1.202626,-3.214747 0.133485,0 0.2427,-0.168291 0.2427,-0.373981 0,-0.542724 2.155677,-2.296216 3.487409,-2.836761 2.19864,-0.892422 7.175392,-0.47738 9.315564,0.776882 1.385271,0.811846 2.243412,2.157473 2.437982,3.822922 l 0.177734,1.521354 h -3.074096 c -3.066934,0 -3.074485,-0.0016 -3.241863,-0.668437 -0.211415,-0.842353 -0.842095,-1.183646 -2.187271,-1.183646 -1.535329,0 -2.597234,1.225382 -2.286788,2.638834 0.212873,0.969207 1.281769,1.485579 3.85776,1.863644 2.524868,0.370562 3.353189,0.686501 4.422724,1.686918 1.115941,1.043827 1.701829,2.980645 1.530144,5.058327 -0.0699,0.845939 -0.221951,1.608064 -0.337884,1.693611 -0.115935,0.08555 -0.448915,0.622705 -0.739957,1.193681 -1.419558,2.784944 -5.661731,4.464839 -9.71019,3.845224 z m 18.257081,-0.09424 c -3.491066,-0.939819 -5.54165,-3.949467 -5.861918,-8.603546 -0.0727,-1.056447 0.02061,-2.087333 0.247041,-2.729084 0.200131,-0.567229 0.347213,-1.112924 0.326851,-1.212658 -0.02037,-0.09973 0.101264,-0.516505 0.270285,-0.926161 0.169018,-0.409655 0.307308,-1.034733 0.307308,-1.389062 0,-0.354329 0.09701,-0.644234 0.21558,-0.644234 0.266687,0 1.107337,-1.723704 1.107337,-2.270534 0,-0.628305 2.438172,-2.906988 3.906694,-3.651144 3.509116,-1.778205 8.993712,-1.33318 11.582511,0.939815 1.377963,1.20987 2.285087,3.290335 2.186699,5.015138 l -0.08111,1.421933 -2.64183,0.07648 c -2.854195,0.08262 -3.311295,-0.114285 -3.311295,-1.426443 0,-0.336125 -0.362587,-0.892467 -0.847672,-1.300639 -0.743955,-0.625995 -1.020172,-0.698965 -2.257449,-0.59636 -1.147781,0.09518 -1.575842,0.277868 -2.303372,0.983017 -1.32161,1.280956 -2.132132,3.969817 -2.132132,7.073237 0,2.799369 0.447935,3.730152 1.987045,4.128977 1.873311,0.485423 3.432781,-0.37337 4.509111,-2.483149 l 0.489831,-0.960152 2.724716,0.05873 c 1.498592,0.0323 2.814011,0.07586 2.923151,0.09679 0.779637,0.149513 -0.848299,3.591102 -2.548784,5.388332 -2.54128,2.685865 -7.190396,3.982067 -10.798595,3.010718 z m -57.253803,-0.340059 c -0.511293,-0.100904 -0.587089,-0.440481 -1.01068,-4.528031 -1.004845,-9.696491 -1.669327,-17.658986 -1.490134,-17.856284 0.103987,-0.114493 1.428891,-0.174024 2.94423,-0.132291 l 2.755164,0.07588 0.163257,5.159375 c 0.08979,2.837657 0.179088,5.675313 0.198437,6.305903 0.04827,1.573228 0.524647,1.316432 1.171415,-0.631469 0.287329,-0.865366 0.618672,-1.811517 0.736317,-2.102559 0.117644,-0.291041 0.644476,-1.779323 1.170736,-3.307291 0.52626,-1.527969 1.166722,-3.313907 1.423247,-3.96875 l 0.466412,-1.190625 2.5606086,-0.07573 2.560611,-0.07573 v 6.359581 c 0,3.731009 0.1014095,6.359581 0.2453508,6.359581 0.2623899,0 0.9604851,-1.76039 3.2001379,-8.069792 0.774835,-2.182812 1.55491131,-4.131267 1.73349976,-4.3299 0.25669081,-0.285496 0.88927516,-0.320742 3.01978474,-0.168253 2.317324,0.16586 2.6775833,0.253564 2.5702921,0.625733 -0.2033032,0.705198 -4.45662298,10.727952 -4.67489368,11.01617 -0.1102069,0.145521 -0.2856362,0.620075 -0.389845,1.054565 -0.10420881,0.434491 -0.72360367,2.041835 -1.37643132,3.571876 -0.6528276,1.53004 -1.2832635,3.020018 -1.4009661,3.311059 -0.1177025,0.291042 -0.4374594,1.037037 -0.7105702,1.657766 l -0.4965674,1.128601 -2.6458333,-0.07027 -2.6458332,-0.07027 -0.063103,-2.513542 c -0.1388268,-5.52986 -0.3830505,-8.494321 -0.6914197,-8.392675 -0.167095,0.05508 -0.700834,1.221822 -1.186085,2.592763 -2.085703,5.89258 -2.8005,7.804073 -3.034582,8.115016 -0.238979,0.317447 -3.732954,0.419873 -5.102556,0.149582 z m 22.9100371,-0.14968 c 0,-0.365746 0.4354565,-2.461945 1.3053615,-6.283756 0.3146663,-1.382448 0.7402142,-3.287448 0.9456631,-4.233333 0.2054464,-0.945886 0.6725867,-3.02948 1.0380848,-4.630209 0.365498,-1.600729 0.8210576,-3.743854 1.012354,-4.7625 L 8.5235262,53.69152 11.490556,53.61671 c 1.631865,-0.04115 2.96703,-0.02635 2.96703,0.03288 0,0.13677 -1.545612,7.668891 -2.777559,13.535682 -0.519475,2.473854 -1.136015,5.420651 -1.370087,6.548437 L 9.8843546,75.78423 H 6.8793048 c -2.2281329,0 -3.0050527,-0.08553 -3.0050527,-0.330827 z M 221.33246,72.41079 c -0.0161,-0.109141 -0.008,-0.459827 0.017,-0.779301 0.0981,-1.230442 -0.42172,-1.668095 -1.98143,-1.668095 -1.49625,0 -1.78454,-0.249142 -0.97763,-0.844894 0.25755,-0.190151 1.8872,-1.893544 3.62143,-3.785314 1.73424,-1.891771 3.39875,-3.626302 3.69892,-3.854514 0.48914,-0.371886 3.10131,-2.014618 6.37045,-4.006212 l 1.17689,-0.716976 1.92318,1.080014 c 1.05772,0.594008 2.12399,1.255732 2.3695,1.470499 0.24548,0.214767 0.56621,0.316401 0.71273,0.225853 0.23966,-0.148129 0.23591,-0.62223 -0.0222,-2.797623 -0.20148,-1.697864 4.83899,-2.220957 6.05181,-0.628046 0.21977,0.288641 0.23271,0.626618 0.0447,1.165985 -0.14562,0.417739 -0.28487,2.640487 -0.30948,4.939439 l -0.0447,4.179914 h 4.58539 c 4.23368,0 4.6142,0.03939 4.96094,0.513591 0.48403,0.661952 0.47667,1.110777 -0.0214,1.301881 -0.3034,0.116426 -0.39688,0.61435 -0.39688,2.114114 0,1.810822 -0.0458,1.974102 -0.59531,2.121358 -0.87088,0.233389 -31.14939,0.202634 -31.18397,-0.03167 z m 37.20984,-0.514416 c -0.13156,-0.395931 -0.45776,-0.61386 -1.02579,-0.685263 l -0.83289,-0.104698 0.87831,-0.04234 c 0.74531,-0.03593 0.86548,-0.130836 0.79375,-0.626811 -0.0519,-0.358902 -0.33983,-0.655055 -0.74601,-0.767376 l -0.66146,-0.182909 0.7276,-0.02638 c 0.54242,-0.01966 0.72761,-0.16105 0.72761,-0.555541 0,-0.291041 0.11906,-0.529166 0.26458,-0.529166 0.14552,0 0.26458,0.238125 0.26458,0.529166 0,0.502225 0.1764,0.529167 3.46435,0.529167 3.24183,0 3.47324,-0.03399 3.60275,-0.529167 0.0761,-0.291041 0.22966,-0.529166 0.34124,-0.529166 0.11157,0 0.26513,0.238125 0.34123,0.529166 0.0946,0.361583 0.37666,0.539081 0.89077,0.56047 l 0.75237,0.03131 -0.79375,0.169733 c -0.55761,0.119232 -0.79375,0.325618 -0.79375,0.693701 0,0.368083 0.23614,0.574468 0.79375,0.6937 l 0.79375,0.169733 -0.8599,0.03131 c -0.67307,0.0245 -0.85989,0.146272 -0.85989,0.560469 0,0.291042 -0.11906,0.529167 -0.26458,0.529167 -0.14553,0 -0.26459,-0.238125 -0.26459,-0.529167 0,-0.502899 -0.1764,-0.529167 -3.55346,-0.529167 -3.474,0 -3.5561,0.01331 -3.67059,0.595313 l -0.1171,0.595312 -0.19288,-0.580562 z m 7.26945,-1.536105 c 0,-0.33161 -0.54388,-0.396875 -3.30729,-0.396875 -2.76342,0 -3.30729,0.06526 -3.30729,0.396875 0,0.33161 0.54387,0.396875 3.30729,0.396875 2.76341,0 3.30729,-0.06526 3.30729,-0.396875 z m -95.11771,-7.96337 c -0.29104,-0.06986 -0.80192,-0.185411 -1.1353,-0.256771 -0.70428,-0.150758 -0.5321,-0.643401 0.22488,-0.643401 0.73138,0 0.63575,-0.653132 -0.14791,-1.010191 -0.47573,-0.216756 -0.66045,-0.507278 -0.65785,-1.034657 0.008,-1.606688 0.57184,-2.499359 0.90861,-1.438297 0.0848,0.267082 0.55069,0.931357 1.03538,1.476165 l 0.88126,0.990561 0.33746,-0.814707 c 0.18561,-0.448089 0.44208,-0.814707 0.56995,-0.814707 0.12786,0 0.23248,-0.186287 0.23248,-0.413972 0,-0.593582 1.08137,-3.025611 1.3453,-3.025611 0.12199,0 0.34884,0.471789 0.50411,1.04842 0.28533,1.059605 0.18533,2.058955 -0.30859,3.083991 -0.48248,1.001296 -0.17506,1.521704 1.04096,1.762184 0.61731,0.122079 1.12239,0.31887 1.12239,0.437312 0,0.32369 -5.02791,0.875778 -5.95313,0.653681 z m 12.92415,-1.913831 c 0.54022,-0.596929 0.33167,-0.837197 -0.73127,-0.842476 -0.44868,-0.0022 -0.99439,-0.12129 -1.21267,-0.264583 -0.99427,-0.652699 1.67887,-1.09838 2.99399,-0.499173 0.55473,0.252756 0.79976,0.166767 1.88479,-0.661459 1.35901,-1.037349 1.6387,-1.105434 2.6494,-0.64493 0.94569,0.430888 0.83817,0.75128 -0.25214,0.75128 -1.57119,0 -1.11186,1.180228 0.64212,1.649902 0.54632,0.14629 -3.97066,0.995932 -5.2947,0.995932 -1.06685,0 -1.09792,-0.02215 -0.67952,-0.484493 z"
       id="path146" />
  </g>
</svg>
